<mxfile host="app.diagrams.net" modified="2024-06-05T03:38:07.035Z" agent="Mozilla/5.0 (Windows NT 10.0; Win64; x64) AppleWebKit/537.36 (KHTML, like Gecko) Chrome/125.0.0.0 Safari/537.36" version="24.4.13" etag="KwVSbrTafb4hEbITg7Fi" type="github">
  <diagram name="PÃ¡gina-1" id="Rh8YzUzQWok2FFsdUC5i">
    <mxGraphModel>
      <root>
        <mxCell id="0" />
        <mxCell id="1" parent="0" />
      </root>
    </mxGraphModel>
  </diagram>
</mxfile>
